<svg xmlns="http://www.w3.org/2000/svg" viewBox="0 0 512 512">
  <defs>
    <linearGradient id="bg" x1="0" y1="0" x2="1" y2="1">
      <stop offset="0%" stop-color="#0b1224" />
      <stop offset="100%" stop-color="#121b33" />
    </linearGradient>
    <linearGradient id="ice" x1="0" y1="0" x2="1" y2="1">
      <stop offset="0%" stop-color="#dff6ff" />
      <stop offset="45%" stop-color="#9ddfff" />
      <stop offset="100%" stop-color="#6bc6f5" />
    </linearGradient>
    <filter id="glow" x="-30%" y="-30%" width="160%" height="160%">
      <feGaussianBlur stdDeviation="6" result="blur" />
      <feMerge>
        <feMergeNode in="blur" />
        <feMergeNode in="SourceGraphic" />
      </feMerge>
    </filter>
  </defs>
  <rect width="512" height="512" rx="112" fill="url(#bg)" />
  <g filter="url(#glow)">
    <path
      d="M192 80h37v37h43V80h37v37h16c44 0 68 22 68 57 0 23-11 40-29 50 25 9 40 29 40 58 0 43-34 73-82 73h-13v37h-37v-37h-43v37h-37v-37h-24V117h24V80zm37 74v68h88c25 0 40-12 40-33 0-22-15-35-40-35h-88zm0 108v67h95c28 0 45-11 45-33s-17-34-45-34h-95z"
      fill="url(#ice)"
      stroke="#ebfdff"
      stroke-width="6"
      stroke-linejoin="round"
    />
    <circle cx="126" cy="120" r="7" fill="#f1feff" />
    <circle cx="384" cy="143" r="6" fill="#f1feff" />
    <circle cx="153" cy="398" r="7" fill="#f1feff" />
    <circle cx="376" cy="380" r="6.5" fill="#f1feff" />
  </g>
</svg>