<svg xmlns="http://www.w3.org/2000/svg" viewBox="0 0 192 192">
  <defs>
    <linearGradient id="bg" x1="0%" y1="0%" x2="100%" y2="100%">
      <stop offset="0%" style="stop-color:#1a1a2e"/>
      <stop offset="100%" style="stop-color:#16213e"/>
    </linearGradient>
  </defs>
  <rect width="192" height="192" rx="40" fill="url(#bg)"/>
  <circle cx="96" cy="96" r="60" fill="none" stroke="#F7931A" stroke-width="8"/>
  <path d="M120 72c4-6-2-10-8-12l2-8-6-2-2 8c-2 0-4 0-6 1l2-8-6-2-2 8c-8 2-14 6-12 14 2 6 8 8 14 10-4 2-8 4-6 10 2 6 8 8 16 6l-2 8 6 2 2-8c2 0 4 0 6-1l2 8 6 2 2-8c8-2 14-6 12-14-2-6-8-8-14-10z" fill="#F7931A"/>
</svg>