<svg xmlns="http://www.w3.org/2000/svg" viewBox="0 0 512 512">
  <defs>
    <linearGradient id="bg" x1="0%" y1="0%" x2="100%" y2="100%">
      <stop offset="0%" style="stop-color:#1a1a2e"/>
      <stop offset="100%" style="stop-color:#16213e"/>
    </linearGradient>
  </defs>
  <rect width="512" height="512" rx="100" fill="url(#bg)"/>
  <circle cx="256" cy="256" r="160" fill="none" stroke="#F7931A" stroke-width="20"/>
  <path d="M320 192c10-16-4-24-20-32l4-20-16-4-4 20c-4 0-10 0-14 2l4-20-16-4-4 20c-20 4-36 16-32 36 4 16 20 20 36 28-8 4-18 10-14 26 4 16 20 20 42 16l-4 20 16 4 4-20c4 0 10 0 14-2l4 20 16 4 4-20c20-4 36-16 32-36-4-16-20-20-36-28z" fill="#F7931A"/>
</svg>