<svg xmlns="http://www.w3.org/2000/svg" viewBox="0 0 192 192">
  <defs>
    <linearGradient id="bg" x1="0" y1="0" x2="1" y2="1">
      <stop offset="0%" stop-color="#0b1224" />
      <stop offset="100%" stop-color="#121b33" />
    </linearGradient>
    <linearGradient id="ice" x1="0" y1="0" x2="1" y2="1">
      <stop offset="0%" stop-color="#dff6ff" />
      <stop offset="45%" stop-color="#9ddfff" />
      <stop offset="100%" stop-color="#6bc6f5" />
    </linearGradient>
    <filter id="glow" x="-30%" y="-30%" width="160%" height="160%">
      <feGaussianBlur stdDeviation="2.2" result="blur" />
      <feMerge>
        <feMergeNode in="blur" />
        <feMergeNode in="SourceGraphic" />
      </feMerge>
    </filter>
  </defs>
  <rect width="192" height="192" rx="42" fill="url(#bg)" />
  <g filter="url(#glow)">
    <path
      d="M72 30h14v14h16V30h14v14h4c16 0 25 8 25 20 0 8-4 14-10 17 9 3 14 10 14 20 0 15-12 26-30 26h-3v14h-14v-14H86v14H72v-14h-9V44h9V30zm14 28v22h30c9 0 14-4 14-11 0-7-5-11-14-11H86zm0 35v22h33c10 0 16-4 16-11 0-8-6-11-16-11H86z"
      fill="url(#ice)"
      stroke="#e9fbff"
      stroke-width="2"
      stroke-linejoin="round"
    />
    <circle cx="46" cy="44" r="2.3" fill="#f1feff" />
    <circle cx="147" cy="55" r="2" fill="#f1feff" />
    <circle cx="58" cy="150" r="2.4" fill="#f1feff" />
    <circle cx="141" cy="139" r="2.2" fill="#f1feff" />
  </g>
</svg>